<?xml version="1.0" encoding="UTF-8"?>
<svg version="1.1" xmlns="http://www.w3.org/2000/svg" width="512" height="512">
<path d="M0 0 C5.20253212 3.23800861 9.09550118 8.1322165 13.01953125 12.765625 C15.40457608 15.4564448 17.93972422 17.97818886 20.5 20.5 C24.2406213 24.18961283 27.78241409 27.97506113 31.19140625 31.97265625 C33.36958492 34.41428634 35.67248008 36.70048032 38 39 C40.93118191 41.89591958 43.76403174 44.80242571 46.4375 47.9375 C49.30172355 51.28925096 52.36334093 54.40556417 55.5 57.5 C59.2184599 61.1684722 62.73668192 64.93149226 66.125 68.90625 C68.48345248 71.53985527 70.98445404 74.01826514 73.5 76.5 C77.21845505 80.16847581 80.73668195 83.93149229 84.125 87.90625 C86.48345248 90.53985527 88.98445404 93.01826514 91.5 95.5 C95.21845505 99.16847581 98.73668195 102.93149229 102.125 106.90625 C104.48345248 109.53985527 106.98445404 112.01826514 109.5 114.5 C113.21845505 118.16847581 116.73668195 121.93149229 120.125 125.90625 C122.93393243 129.04289122 125.94820294 131.96918735 128.94433594 134.92480469 C132.25280377 138.2058732 135.34735366 141.60341517 138.3671875 145.1484375 C140.6589002 147.74717391 143.12380084 150.15074969 145.6171875 152.5546875 C147.88727343 154.92737619 148.03646967 156.26440511 148.5 159.625 C148.26519292 169.4737919 133.71553114 179.39291161 127.0625 186 C125.79338627 187.2640885 124.52450411 188.52840956 123.25585938 189.79296875 C120.1732368 192.86466724 117.08749572 195.93320008 114 199 C115.3317627 199.01401855 115.3317627 199.01401855 116.69042969 199.02832031 C119.99345919 199.07240681 123.29520007 199.13404746 126.59765625 199.20751953 C128.02526937 199.23569611 129.45303753 199.25692727 130.88085938 199.27099609 C132.93700332 199.29247392 134.99129002 199.33913974 137.046875 199.390625 C138.28276367 199.41157227 139.51865234 199.43251953 140.79199219 199.45410156 C144.72652503 200.12363089 145.65908475 200.79554278 148 204 C148.39272318 207.00716538 148.54041291 209.64750999 148.50793457 212.65429688 C148.51729451 213.97826099 148.51729451 213.97826099 148.52684355 215.32897186 C148.54282396 218.29250136 148.53014953 221.25521411 148.51757812 224.21875 C148.52299699 226.34090658 148.53011832 228.46305941 148.53881836 230.58520508 C148.5570825 236.35374135 148.54997132 242.12199206 148.53730202 247.89053345 C148.52719041 253.92117088 148.53656258 259.9517835 148.54284668 265.98242188 C148.55012844 276.11072184 148.54052146 286.23890522 148.52148438 296.3671875 C148.49971471 308.08475843 148.5067657 319.80205099 148.52879 331.51961517 C148.54692889 341.57150408 148.5495097 351.62330907 148.53903532 361.67520905 C148.5327921 367.68252629 148.53198757 373.6897126 148.54518127 379.69702148 C148.5567171 385.34415753 148.54875532 390.99093391 148.52560425 396.63803101 C148.52030505 398.71332196 148.52185151 400.78864307 148.53065491 402.86392212 C148.54154608 405.6915942 148.52792466 408.51810551 148.50793457 411.34570312 C148.51685746 412.17176811 148.52578034 412.9978331 148.53497362 413.84893036 C148.48903985 417.18645677 148.2211478 419.60578056 146.57629967 422.53789711 C142.53392882 424.83202546 138.82093783 424.31756106 134.27127075 424.04794312 C133.27185326 424.00605476 132.27243576 423.96416641 131.24273288 423.92100871 C129.0471387 423.82696004 126.85193098 423.72354948 124.65715027 423.61211967 C119.82887742 423.36789151 114.99902378 423.16995845 110.16874862 422.96991563 C107.56154422 422.86193857 104.95442904 422.75178883 102.3474009 422.63963675 C92.69076628 422.22776363 83.03429457 421.92930863 73.37179565 421.69546509 C72.66904063 421.67833735 71.9662856 421.6612096 71.24223496 421.64356284 C64.70556157 421.48522309 58.1687182 421.3348252 51.63169885 421.1914947 C47.14385607 421.09288004 42.65611848 420.99033977 38.16845703 420.88378906 C37.42348339 420.86615594 36.67850974 420.84852282 35.91096114 420.83035536 C25.47579366 420.57709554 15.05750418 420.16402326 4.63335404 419.62519374 C-13.34412924 418.69679194 -31.30164055 418.09868575 -49.3046875 418.0859375 C-50.00255556 418.08462668 -50.70042362 418.08331587 -51.4194392 418.08196533 C-88.87987307 418.05673852 -118.24100039 422.91005401 -145.95681763 450.32095337 C-158.01296428 462.74866628 -169.0051236 476.19280708 -178.77762496 490.48462999 C-181.81040484 494.90520242 -181.81040484 494.90520242 -184 496 C-187.16482953 496.48277061 -188.97342292 496.74844957 -192 496 C-197.2692341 491.99080014 -200.52271428 486.42427895 -202 480 C-202.27251115 475.76022522 -202.14881018 471.55607043 -202 467.3125 C-201.92324612 465.10070908 -201.86022551 462.88838887 -201.8125 460.67578125 C-201.77769531 459.70552002 -201.74289063 458.73525879 -201.70703125 457.7355957 C-202.16865078 453.42522332 -204.20607116 450.84063054 -207.125 447.75 C-211.02855129 445.3739253 -214.44913088 444.77245654 -219 445 C-222.6265242 446.31609415 -222.6265242 446.31609415 -226 448 C-232.00926302 449.55795708 -236.51297107 448.67131672 -242 446 C-245.90115329 442.86211583 -248.25125874 439.69398969 -250 435 C-250.4047583 431.12903882 -250.24114026 427.72342077 -249 424 C-250.77192719 424.01332367 -250.77192719 424.01332367 -252.57965088 424.0269165 C-263.70375683 424.10794897 -274.82780303 424.16793982 -285.95213699 424.20724869 C-291.67150407 424.22813709 -297.39063318 424.25647798 -303.10986328 424.30175781 C-308.62766616 424.3451703 -314.14523992 424.36912766 -319.66320038 424.37950897 C-321.76999265 424.38690857 -323.87677218 424.401358 -325.9834671 424.42292023 C-328.93098703 424.45189273 -331.87755626 424.45595853 -334.82519531 424.45410156 C-335.69913437 424.46848267 -336.57307343 424.48286377 -337.47349548 424.49768066 C-343.37656013 424.45735116 -343.37656013 424.45735116 -346.5380249 422.13812256 C-349.46753866 417.8537408 -348.69533584 412.94664357 -348 408 C-344.86250855 398.18492719 -337.97543915 392.09916971 -329.69921875 386.45703125 C-327.0443124 384.18052535 -326.15175839 382.06936724 -325.6640625 378.6328125 C-325.64472656 377.39144531 -325.64472656 377.39144531 -325.625 376.125 C-325.59664063 375.30257813 -325.56828125 374.48015625 -325.5390625 373.6328125 C-326.18663008 369.9339943 -327.62394478 367.89411316 -330 365 C-333.07663365 362.986001 -333.07663365 362.986001 -336.5 361.4375 C-341.87993985 358.86475353 -345.29321203 356.41357595 -348 351 C-348.47980301 344.86481396 -348.92104205 339.05463226 -346.375 333.375 C-342.62189689 329.62189689 -338.6639749 327.29695144 -333.875 325.125 C-329.84540574 323.1179224 -327.87449453 321.2176127 -326 317 C-325.2219357 312.02363045 -325.25109568 308.42399835 -327.625 303.91015625 C-330.33551872 300.5888792 -332.64901469 299.27025104 -336.5 297.4375 C-341.87993985 294.86475353 -345.29321203 292.41357595 -348 287 C-348.47980301 280.86481396 -348.92104205 275.05463226 -346.375 269.375 C-342.62189689 265.62189689 -338.6639749 263.29695144 -333.875 261.125 C-329.84540574 259.1179224 -327.87449453 257.2176127 -326 253 C-325.24241547 248.15461564 -325.41222802 244.30332048 -327.4375 239.8125 C-330.28940678 236.68235841 -333.3691591 234.31522633 -336.75 231.78515625 C-342.12563366 227.52011357 -346.03973409 222.64312336 -348 216 C-349.12594465 205.43558107 -349.12594465 205.43558107 -346.3012619 201.83410645 C-343.44199573 199.55527043 -342.28112099 199.59943867 -338.68371582 199.88476562 C-337.60388333 199.95771567 -336.52405085 200.03066572 -335.41149616 200.10582638 C-334.22962821 200.20496617 -333.04776026 200.30410597 -331.83007812 200.40625 C-329.90829631 200.53628565 -327.98650423 200.66621104 -326.06445104 200.7921719 C-324.69746444 200.88249199 -323.33064146 200.97531814 -321.96398228 201.07046419 C-247.67570765 209.19502631 -247.67570765 209.19502631 -181.47980881 183.9210701 C-176.53294465 179.41975671 -172.0953179 174.5681869 -167.8125 169.4375 C-167.2271347 168.73689453 -166.64176941 168.03628906 -166.03866577 167.31445312 C-159.47130518 159.34008824 -153.54879157 151.06358512 -148.19099426 142.23313904 C-142.71214604 134.14828077 -135.57682431 127.44087243 -128.67773438 120.58007812 C-127.65336589 119.55763302 -126.62922795 118.53495689 -125.6053009 117.5120697 C-123.41439488 115.32430454 -121.22195022 113.13809772 -119.02827454 110.95310974 C-115.55329524 107.49175026 -112.08222045 104.0264926 -108.61169434 100.56066895 C-100.61870588 92.57967942 -92.62069407 84.60373022 -84.62262726 76.62783051 C-77.28713746 69.31256716 -69.95273572 61.99622147 -62.62238741 54.67580557 C-59.17856418 51.23693772 -55.73232429 47.80051651 -52.2841568 44.36600494 C-50.13313021 42.22248406 -47.98421914 40.07685165 -45.83585167 37.93066597 C-44.84634267 36.94301489 -43.85597681 35.95622135 -42.86464882 34.97039604 C-37.86386911 29.99648269 -32.97749874 24.98789292 -28.39526081 19.62321377 C-26.57340013 17.5037037 -24.64213052 15.51267748 -22.66796875 13.53515625 C-21.56485352 12.43010742 -21.56485352 12.43010742 -20.43945312 11.30273438 C-19.69630859 10.56345703 -18.95316406 9.82417969 -18.1875 9.0625 C-17.42501953 8.29615234 -16.66253906 7.52980469 -15.87695312 6.74023438 C-15.14798828 6.01255859 -14.41902344 5.28488281 -13.66796875 4.53515625 C-12.68219849 3.55107788 -12.68219849 3.55107788 -11.67651367 2.54711914 C-8.26071393 -0.60504672 -4.44214698 -0.94013693 0 0 Z " fill="#010000" transform="translate(356,8)"/>
<path d="M0 0 C2.30665839 -0.37259549 2.30665839 -0.37259549 5.25927162 -0.36914349 C6.3814237 -0.37511663 7.50357578 -0.38108978 8.65973246 -0.38724393 C10.52448554 -0.37413614 10.52448554 -0.37413614 12.4269104 -0.36076355 C13.73943956 -0.36332682 15.05196872 -0.3658901 16.40427148 -0.36853105 C20.05975636 -0.37526523 23.71497945 -0.36320343 27.37043095 -0.34819686 C31.30771969 -0.33528275 35.24499279 -0.33962267 39.18229675 -0.34190369 C46.00801741 -0.34347936 52.83365227 -0.33403952 59.65935135 -0.31719017 C69.52824215 -0.29284446 79.39709132 -0.28499945 89.2660089 -0.2812262 C105.27632114 -0.27465474 121.28658762 -0.25467479 137.296875 -0.22631836 C152.85253676 -0.19879573 168.40818605 -0.17758775 183.96386719 -0.16479492 C184.93194966 -0.16399093 185.90003214 -0.16318694 186.89745045 -0.16235858 C194.46810542 -0.15612059 202.03876066 -0.15024972 209.60941601 -0.14449489 C246.73965267 -0.11617629 283.86977482 -0.0558256 321 0 C321 63.36 321 126.72 321 192 C240.68684023 192.40331349 240.68684023 192.40331349 207.1875 192.48828125 C199.51952909 192.50786044 191.85156022 192.5280654 184.18359375 192.54931641 C182.74198029 192.55327264 182.74198029 192.55327264 181.27124333 192.55730879 C165.74842607 192.60082084 150.22597865 192.67966883 134.70338081 192.77152796 C118.77698013 192.86499175 102.85077326 192.92057675 86.92410958 192.94088495 C77.09357168 192.95461729 67.2640786 192.99801073 57.43386228 193.07916467 C50.69596015 193.13196156 43.95859933 193.14801576 37.22050528 193.13501377 C33.33053322 193.1285979 29.44238842 193.13853514 25.5527401 193.19205475 C21.3366028 193.24964367 17.12436849 193.22992189 12.90792847 193.20254517 C11.67641111 193.23167358 10.44489376 193.26080199 9.1760577 193.29081309 C5.82715583 193.23181185 3.16600972 193.09817467 0 192 C-2.16433692 189.63144918 -3.43868463 187.42920734 -4.75677288 184.51143396 C-6.83478049 180.31366608 -10.37485221 177.84284229 -14 175 C-15.29829603 173.94561086 -16.59035673 172.88348119 -17.875 171.8125 C-18.42929688 171.36519531 -18.98359375 170.91789063 -19.5546875 170.45703125 C-22.6106388 167.37630197 -23.3086761 164.38299463 -23.375 160.125 C-23.24349019 154.16322199 -21.1139189 151.05174481 -16.875 146.9375 C-14.25084532 145.16904794 -11.81760325 144.02299718 -8.9375 142.75 C-4.58434514 140.61559173 -2.34729431 138.77812671 -0.55859375 134.2421875 C0.66140146 129.34514378 1.07778742 124.72037689 -0.8125 119.94921875 C-3.58594955 115.45199326 -6.98078056 113.84378953 -11.78515625 111.94921875 C-16.49861883 109.92916336 -19.32293993 107.19613945 -21.875 102.6875 C-23.5681035 97.13788299 -24.09506912 93.10902201 -21.3125 87.75 C-17.62100626 83.36011555 -14.13501389 81.04728587 -8.9375 78.75 C-4.58434514 76.61559173 -2.34729431 74.77812671 -0.55859375 70.2421875 C0.66140146 65.34514378 1.07778742 60.72037689 -0.8125 55.94921875 C-3.58594955 51.45199326 -6.98078056 49.84378953 -11.78515625 47.94921875 C-16.49861883 45.92916336 -19.32293993 43.19613945 -21.875 38.6875 C-23.5681035 33.13788299 -24.09506912 29.10902201 -21.3125 23.75 C-19.024878 21.02958465 -16.83792311 19.12844233 -14 17 C-8.68150621 12.77492908 -5.04619114 9.09238227 -2 3 C-1.34 2.01 -0.68 1.02 0 0 Z " fill="#F6D780" transform="translate(167,224)"/>
<path d="M0 0 C3.10265188 1.47706612 5.09734074 2.90416363 7.42578125 5.44921875 C8.05806641 6.13306641 8.69035156 6.81691406 9.34179688 7.52148438 C9.99212891 8.23626953 10.64246094 8.95105469 11.3125 9.6875 C12.5990787 11.08832585 13.88683306 12.48807285 15.17578125 13.88671875 C15.8085498 14.5739502 16.44131836 15.26118164 17.09326172 15.96923828 C19.5074118 18.54041631 22.00456833 21.02000081 24.51049805 23.5012207 C26.18068357 25.18180895 27.73174909 26.93143572 29.25 28.75 C32.18279622 32.1583848 35.30072901 35.34399164 38.5 38.5 C42.21847447 42.16846136 45.73668185 45.93149217 49.125 49.90625 C51.48345248 52.53985527 53.98445404 55.01826514 56.5 57.5 C60.21845505 61.16847581 63.73668195 64.93149229 67.125 68.90625 C69.48345248 71.53985527 71.98445404 74.01826514 74.5 76.5 C78.21845505 80.16847581 81.73668195 83.93149229 85.125 87.90625 C87.48345248 90.53985527 89.98445404 93.01826514 92.5 95.5 C96.21845505 99.16847581 99.73668195 102.93149229 103.125 106.90625 C105.93600311 110.04520347 108.95267797 112.97350681 111.95092773 115.93139648 C115.19272404 119.14644254 118.21862879 122.46891189 121.16015625 125.95703125 C124.27757253 129.41862087 127.73560211 132.54405606 131.15625 135.703125 C131.7646875 136.46109375 132.373125 137.2190625 133 138 C131.51941081 150.89816609 112.47998604 166.14588565 103.24558449 173.94317436 C85.2127979 187.66555013 60.35082944 184.03780464 39.00823975 182.60925293 C32.44785302 182.21350353 25.88149122 182.04555053 19.3125 181.85546875 C6.52699548 181.45332793 -6.23459933 180.81694231 -19 180 C-14.73141883 174.8920522 -10.25550327 170.14045752 -5.51000977 165.47583008 C-4.78576309 164.75946884 -4.06151642 164.0431076 -3.31532288 163.30503845 C-1.75474129 161.76155726 -0.19311984 160.21912687 1.36944389 158.67765236 C4.68782714 155.4014827 7.99678508 152.11586259 11.30634403 148.83078289 C17.45922477 142.72360474 23.6159198 136.62039782 29.78881836 130.53344727 C34.09229961 126.28916826 38.3836316 122.03294016 42.66703987 117.76840782 C44.30170512 116.14551757 45.94090488 114.52718188 47.58462334 112.91346169 C49.87323394 110.66561283 52.14606566 108.40289906 54.41577148 106.13598633 C55.10189514 105.4694101 55.7880188 104.80283386 56.49493408 104.11605835 C57.10753586 103.49802841 57.72013763 102.87999847 58.3513031 102.24324036 C58.89013343 101.71031781 59.42896376 101.17739527 59.98412228 100.62832355 C61.22163711 99.02158902 61.22163711 99.02158902 60.75856113 96.91961193 C59.79835674 94.48972234 58.51608769 93.04741253 56.6875 91.1875 C56.09324219 90.56230469 55.49898437 89.93710938 54.88671875 89.29296875 C53.11873855 87.78213511 53.11873855 87.78213511 51.11586666 88.19575405 C48.46631527 89.20285483 47.19938733 90.51043649 45.25941467 92.57496643 C44.53013763 93.34202911 43.8008606 94.1090918 43.04948425 94.8993988 C42.25850845 95.74672073 41.46753265 96.59404266 40.65258789 97.46704102 C38.90761281 99.30769467 37.16215192 101.14788786 35.41627502 102.98768616 C34.48104417 103.97795793 33.54583398 104.96824924 32.61064339 105.95855904 C29.70271158 109.03170937 26.76885202 112.07920556 23.82749939 115.12034607 C23.32980563 115.63501216 22.83211187 116.14967825 22.31933647 116.67994028 C20.26457411 118.80391256 18.20903739 120.92713454 16.15342343 123.0502826 C10.34336381 129.05393805 4.55967298 135.07862537 -1.15258789 141.17553711 C-5.69679927 146.02537848 -10.29249304 150.81952329 -14.95211607 155.55867141 C-17.41057543 158.0630241 -19.83745565 160.58541819 -22.20326042 163.17773628 C-31.44412822 173.27069628 -39.27724974 180.89574148 -53.46800327 181.82929134 C-68.61608299 181.97622018 -68.61608299 181.97622018 -73.67461967 177.78279305 C-76.04063416 175.13331604 -76.04063416 175.13331604 -78.02285671 172.51249027 C-80.24386824 169.49421771 -80.24386824 169.49421771 -85 166 C-88.3 169.3 -91.6 172.6 -95 176 C-94.34 177.32 -93.68 178.64 -93 180 C-113.56193416 181.56481481 -113.56193416 181.56481481 -118.46484375 177.99609375 C-120.61603783 175.76819583 -122.39472326 173.64398522 -124 171 C-120.79239749 167.19364503 -117.59253891 163.45436433 -114 160 C-111.50638429 161.20381448 -109.31856917 162.45428722 -107 164 C-103.7 160.7 -100.4 157.4 -97 154 C-103.6896242 145.36030856 -103.6896242 145.36030856 -112.9375 140.1875 C-116.16331394 141.04332819 -117.17759055 141.81392324 -119.59765625 143.99609375 C-120.30092041 144.62974854 -121.00418457 145.26340332 -121.72875977 145.91625977 C-122.47826904 146.60389404 -123.22777832 147.29152832 -124 148 C-124.77077881 148.69859131 -125.54155762 149.39718262 -126.33569336 150.11694336 C-128.75537924 152.33831465 -131.12964058 154.60115358 -133.5 156.875 C-134.32242188 157.62652344 -135.14484375 158.37804687 -135.9921875 159.15234375 C-141.11727967 164.07862054 -141.11727967 164.07862054 -142.78125 170.7578125 C-142.58410532 175.28060517 -141.21694423 175.97881971 -138 180 C-151.2 180 -164.4 180 -178 180 C-171.25025685 172.12529966 -171.25025685 172.12529966 -167.6051178 168.49159241 C-166.37103935 167.25761971 -166.37103935 167.25761971 -165.11203003 165.99871826 C-164.22822662 165.12008118 -163.34442322 164.24144409 -162.43383789 163.33618164 C-161.47858177 162.38284848 -160.52355587 161.42928459 -159.56874084 160.47550964 C-157.52405385 158.43396587 -155.4778282 156.39398182 -153.43037605 154.35521126 C-150.18651488 151.12496189 -146.94655119 147.89082183 -143.70713806 144.65611267 C-136.24493388 137.20591252 -128.77771654 129.76074363 -121.31043243 122.31563568 C-114.4648193 115.4902521 -107.62029501 108.66378584 -100.77982706 101.83324522 C-97.56598452 98.62435577 -94.34972686 95.4179136 -91.1315366 92.21338475 C-89.12254141 90.21190149 -87.11566748 88.20830125 -85.10933495 86.20414925 C-83.74910242 84.84665103 -82.38635118 83.49167804 -81.02349854 82.1368103 C-76.72862932 77.84230784 -72.60554049 73.47776839 -68.64613819 68.872962 C-65.91410638 65.7644795 -62.98896319 62.85789567 -60.05493164 59.94140625 C-59.40042023 59.28674881 -58.74590881 58.63209137 -58.07156372 57.95759583 C-55.93679311 55.82351433 -53.79851725 53.69298335 -51.66015625 51.5625 C-50.16778522 50.07199672 -48.6756368 48.58127052 -47.18370056 47.09033203 C-43.27824587 43.18867446 -39.36979621 39.2900308 -35.46069336 35.39202881 C-31.46350202 31.40511224 -27.46918061 27.41532264 -23.47460938 23.42578125 C-15.65252958 15.61438923 -7.82727952 7.80618147 0 0 Z " fill="#F0C150" transform="translate(351,28)"/>
<path d="M0 0 C40.26 0 80.52 0 122 0 C116.64804469 5.35195531 116.64804469 5.35195531 113.0625 7.625 C107.26767321 11.82844443 104.22477141 18.32568577 102 25 C101.03183868 35.28473006 102.96275872 45.12249261 109.37890625 53.4375 C113.78480415 57.68414857 119.5563561 60.32217979 125 63 C125 63.66 125 64.32 125 65 C124.02160156 65.45439453 124.02160156 65.45439453 123.0234375 65.91796875 C113.07526135 70.68663726 107.46856649 75.73252736 102.6875 85.75 C100.39779625 96.57405408 102.33820052 106.42182184 108.125 115.8125 C112.29112115 121.21158536 119.00893563 124.05289443 125 127 C125 127.66 125 128.32 125 129 C124.34773438 129.30292969 123.69546875 129.60585938 123.0234375 129.91796875 C113.07526135 134.68663726 107.46856649 139.73252736 102.6875 149.75 C100.414039 160.49727016 102.28303644 170.36442375 108.0625 179.6875 C111.19796396 183.78543232 115.55211794 186.5125457 119.76953125 189.3984375 C120.50558594 189.92695313 121.24164063 190.45546875 122 191 C122 191.33 122 191.66 122 192 C81.74 192 41.48 192 0 192 C5.40697674 186.59302326 5.40697674 186.59302326 8.4375 184.8125 C14.04682082 180.93006615 16.86088516 174.79600915 19.375 168.625 C20.94079951 159.54336286 20.70240121 152.03908853 16 144 C15.66097656 143.37351562 15.32195313 142.74703125 14.97265625 142.1015625 C10.87669644 135.4255853 3.82003237 132.3548889 -3 129 C-2 126 -2 126 0.51171875 124.67578125 C1.55972656 124.22589844 2.60773437 123.77601563 3.6875 123.3125 C9.60458613 120.45573362 12.88662629 117.76283411 16 112 C16.40992187 111.24847656 16.81984375 110.49695313 17.2421875 109.72265625 C20.70542823 102.35431304 21.49975242 94.3012639 19.26953125 86.41796875 C18.32512258 84.15524268 17.25342695 82.10559181 16 80 C15.66097656 79.37480469 15.32195313 78.74960937 14.97265625 78.10546875 C10.8828879 71.42502863 3.81942583 68.35459054 -3 65 C-2 62 -2 62 0.51171875 60.67578125 C1.55972656 60.22589844 2.60773437 59.77601563 3.6875 59.3125 C9.60458613 56.45573362 12.88662629 53.76283411 16 48 C16.61488281 46.87271484 16.61488281 46.87271484 17.2421875 45.72265625 C20.70542823 38.35431304 21.49975242 30.3012639 19.26953125 22.41796875 C18.32523074 20.15550182 17.25386385 18.1049966 16 16 C15.67257813 15.39800781 15.34515625 14.79601562 15.0078125 14.17578125 C11.8319193 9.01785252 7.16875136 5.98073079 2.23046875 2.6015625 C1.49441406 2.07304687 0.75835938 1.54453125 0 1 C0 0.67 0 0.34 0 0 Z " fill="#E37B6D" transform="translate(27,224)"/>
<path d="M0 0 C1.28992355 -0.00554901 2.57984711 -0.01109802 3.90885925 -0.01681519 C7.44006301 -0.03104557 10.97048642 -0.01401989 14.50161552 0.00946999 C18.20017049 0.02960069 21.89869375 0.02369828 25.59729004 0.0213623 C31.80799199 0.02141585 38.01838947 0.0411583 44.22900391 0.07324219 C51.40512854 0.11013413 58.5808544 0.11891753 65.75706148 0.11194468 C72.66570695 0.10563518 79.57421594 0.11640218 86.48283386 0.13591003 C89.42052661 0.14407593 92.35814952 0.14679508 95.29585266 0.1452179 C99.3992621 0.14417419 103.50214772 0.1683704 107.60546875 0.1953125 C109.43219368 0.1909166 109.43219368 0.1909166 111.29582214 0.18643188 C112.41455215 0.19778168 113.53328217 0.20913147 114.68591309 0.2208252 C115.65559776 0.22455391 116.62528244 0.22828262 117.6243515 0.23212433 C120.81111338 0.6879518 122.7085672 1.73792472 125.30273438 3.61523438 C126.89279969 6.795365 126.48690514 10.23494095 126.50585938 13.72851562 C126.51155945 14.53508102 126.51725952 15.34164642 126.52313232 16.1726532 C126.53258633 17.88160896 126.53911789 19.59058298 126.54296875 21.29956055 C126.55265757 23.90706479 126.58366937 26.51377515 126.61523438 29.12109375 C126.62176622 30.78189636 126.62701598 32.44270461 126.63085938 34.10351562 C126.64320618 34.88076492 126.65555298 35.65801422 126.66827393 36.45881653 C126.64967866 41.00638921 126.22623519 44.05419801 123.30273438 47.61523438 C120.23295611 48.6384938 118.13517792 48.74584412 114.91969299 48.75567627 C113.80226715 48.76138641 112.68484131 48.76709656 111.53355408 48.77297974 C110.30697586 48.7740976 109.08039764 48.77521545 107.81665039 48.77636719 C105.8797937 48.78381454 105.8797937 48.78381454 103.90380859 48.79141235 C100.36044275 48.8045276 96.81709585 48.81097931 93.27370954 48.81542301 C91.06035371 48.81835446 88.84700305 48.82245935 86.63364983 48.82692719 C79.70957035 48.84059828 72.78550271 48.85026748 65.86141068 48.85412908 C57.86628476 48.85861249 49.87132957 48.876175 41.87625557 48.90512967 C35.69698693 48.92673245 29.51776639 48.93683256 23.33846039 48.93817019 C19.64724567 48.93921901 15.95619154 48.94514317 12.26501656 48.96298981 C8.14930952 48.98250256 4.033961 48.97818718 -0.08178711 48.97167969 C-1.30634109 48.98089447 -2.53089508 48.99010925 -3.79255676 48.99960327 C-5.47292526 48.99124954 -5.47292526 48.99124954 -7.1872406 48.98272705 C-8.64704676 48.98492689 -8.64704676 48.98492689 -10.13634396 48.98717117 C-13.16308884 48.5475803 -14.51369087 47.73069904 -16.69726562 45.61523438 C-18.65548517 39.74057574 -18.00432848 33.01991266 -18.04736328 26.85546875 C-18.06393204 25.11542393 -18.09123452 23.37544743 -18.12939453 21.63574219 C-18.18423444 19.12073651 -18.20604423 16.6073203 -18.22070312 14.09179688 C-18.2433725 13.31768463 -18.26604187 12.54357239 -18.28939819 11.7460022 C-18.27549583 8.18164372 -17.89434792 5.92126044 -15.95437622 2.90890503 C-10.89857891 -0.65140819 -6.04063848 -0.06578861 0 0 Z " fill="#000000" transform="translate(201.697265625,351.384765625)"/>
<path d="M0 0 C95.04 0 190.08 0 288 0 C288 5.28 288 10.56 288 16 C192.96 16 97.92 16 0 16 C0 10.72 0 5.44 0 0 Z " fill="#000000" transform="translate(184,320)"/>
<path d="M0 0 C2.35978327 1.97451253 4.68430475 3.97488427 7 6 C7.66773438 6.55300781 8.33546875 7.10601562 9.0234375 7.67578125 C13.71166213 11.83777658 13.71166213 11.83777658 14.5078125 15.046875 C14.61493001 19.11734028 13.57212598 22.3210979 12 26 C12.9178125 25.91878906 13.835625 25.83757812 14.78125 25.75390625 C26.05504726 25.17363727 26.05504726 25.17363727 30.125 28.75 C31.44125498 30.1438508 32.72899652 31.56476574 34 33 C35.59405682 34.60915402 37.20875887 36.19603799 38.82373047 37.78417969 C41.23922287 40.16660243 43.61893193 42.5832159 46 45 C44.01929563 47.35043586 42.01418678 49.67822804 40 52 C39.29875 52.825 38.5975 53.65 37.875 54.5 C36 56 36 56 34.21875 55.96875 C31.47482659 54.77069893 30.01273049 52.9385961 28.09082031 50.69433594 C23.07057717 44.81693857 23.07057717 44.81693857 16.1015625 41.984375 C12.68463432 41.77644834 9.41134963 41.73758849 6 42 C4.97511513 44.81748792 4.54769251 46.09851659 5 49 C7.54494604 52.5917264 10.71135572 55.46081223 13.9375 58.4375 C14.80052734 59.26443359 15.66355469 60.09136719 16.55273438 60.94335938 C18.68498698 62.98136877 20.83358142 64.99844863 23 67 C21.39464713 70.41059403 19.59481099 72.61792484 16.875 75.25 C16.15054688 75.95640625 15.42609375 76.6628125 14.6796875 77.390625 C13.84824219 78.18726563 13.84824219 78.18726563 13 79 C9.55323 77.51657 7.32656699 75.56949812 4.69042969 72.91748047 C3.84986023 72.07675995 3.00929077 71.23603943 2.14324951 70.36984253 C0.79616913 69.00727829 0.79616913 69.00727829 -0.578125 67.6171875 C-1.5046991 66.68778351 -2.43127319 65.75837952 -3.38592529 64.80081177 C-5.84315789 62.3359615 -8.29432361 59.86516334 -10.7442627 57.39306641 C-13.24773809 54.86909235 -15.75692063 52.35080612 -18.265625 49.83203125 C-23.18267525 44.89356403 -28.09333788 39.948788 -33 35 C-31.39464713 31.58940597 -29.59481099 29.38207516 -26.875 26.75 C-26.15054688 26.04359375 -25.42609375 25.3371875 -24.6796875 24.609375 C-24.12539062 24.07828125 -23.57109375 23.5471875 -23 23 C-19.09714233 24.58667578 -16.66479018 27.13350481 -13.75 30.125 C-12.85796875 31.03507812 -11.9659375 31.94515625 -11.046875 32.8828125 C-10.37140625 33.58148438 -9.6959375 34.28015625 -9 35 C-8.10598525 32.75596298 -7.23484711 30.50709867 -6.375 28.25 C-6.11976563 27.61578125 -5.86453125 26.9815625 -5.6015625 26.328125 C-4.17686949 22.59950806 -4.17686949 22.59950806 -4.6875 18.75 C-5.96689755 17.0441366 -7.23100868 15.36409522 -8.625 13.75 C-9.40875 12.8425 -10.1925 11.935 -11 11 C-7.37 7.37 -3.74 3.74 0 0 Z " fill="#040201" transform="translate(277,125)"/>
<path d="M0 0 C5.28 0 10.56 0 16 0 C16.33 5.94 16.66 11.88 17 18 C24.39296797 15.05912372 24.39296797 15.05912372 31 11 C32.61101117 6.92605312 32.33118168 4.4709527 32 0 C37.28 0 42.56 0 48 0 C48.13530844 3.06398451 48.2342407 6.12197126 48.3125 9.1875 C48.35439453 10.05181641 48.39628906 10.91613281 48.43945312 11.80664062 C48.52486751 16.26527167 48.5392701 18.30479638 45.73046875 21.92578125 C44.82941406 22.61027344 43.92835938 23.29476563 43 24 C42.236875 24.598125 41.47375 25.19625 40.6875 25.8125 C40.130625 26.204375 39.57375 26.59625 39 27 C39.56589844 27.55429687 40.13179688 28.10859375 40.71484375 28.6796875 C41.44832031 29.40414063 42.18179688 30.12859375 42.9375 30.875 C43.66839844 31.59429687 44.39929688 32.31359375 45.15234375 33.0546875 C48.32084139 36.3906533 48.11872974 38.59183648 48.09765625 43.1015625 C48.09443359 44.31328125 48.09121094 45.525 48.08789062 46.7734375 C48.07532227 48.67996094 48.07532227 48.67996094 48.0625 50.625 C48.05798828 51.90375 48.05347656 53.1825 48.04882812 54.5 C48.03701213 57.66668645 48.01907621 60.83334896 48 64 C42.72 64 37.44 64 32 64 C32.020625 62.576875 32.04125 61.15375 32.0625 59.6875 C32.3427662 49.35973227 32.3427662 49.35973227 29.15234375 39.82421875 C27.19093459 37.9319951 25.34405255 36.38293761 23 35 C21.02 35.66 19.04 36.32 17 37 C16.67 45.91 16.34 54.82 16 64 C10.72 64 5.44 64 0 64 C0 42.88 0 21.76 0 0 Z " fill="#010000" transform="translate(320,240)"/>
<path d="M0 0 C0.8245166 -0.00478363 1.6490332 -0.00956726 2.49853516 -0.01449585 C4.23667313 -0.01788872 5.97487544 -0.00872903 7.71289062 0.01220703 C10.36733825 0.03898521 13.01755825 0.01244254 15.671875 -0.01953125 C17.36459263 -0.01622704 19.05730763 -0.00982056 20.75 0 C21.93456787 -0.01518173 21.93456787 -0.01518173 23.14306641 -0.03067017 C27.28514384 0.05704296 28.96011251 0.35361232 32.38354492 2.9152832 C34.4549992 5.77448434 34.98061575 6.85895942 34.86328125 10.30859375 C34.84716797 11.14970703 34.83105469 11.99082031 34.81445312 12.85742188 C34.75161133 14.15389648 34.75161133 14.15389648 34.6875 15.4765625 C34.66494141 16.36021484 34.64238281 17.24386719 34.61914062 18.15429688 C34.56047428 20.3249516 34.47079979 22.4947294 34.375 24.6640625 C29.095 24.6640625 23.815 24.6640625 18.375 24.6640625 C18.375 22.0240625 18.375 19.3840625 18.375 16.6640625 C13.095 16.6640625 7.815 16.6640625 2.375 16.6640625 C2.375 27.2240625 2.375 37.7840625 2.375 48.6640625 C7.655 48.6640625 12.935 48.6640625 18.375 48.6640625 C18.375 46.0240625 18.375 43.3840625 18.375 40.6640625 C23.655 40.6640625 28.935 40.6640625 34.375 40.6640625 C34.51030844 43.72804701 34.6092407 46.78603376 34.6875 49.8515625 C34.72939453 50.71587891 34.77128906 51.58019531 34.81445312 52.47070312 C34.83056641 53.31181641 34.84667969 54.15292969 34.86328125 55.01953125 C34.88946533 55.78934326 34.91564941 56.55915527 34.94262695 57.35229492 C34.04191594 61.02060999 32.37026997 62.42277512 29.375 64.6640625 C26.49089098 65.37235377 23.7091463 65.36605019 20.75 65.328125 C19.5132251 65.33530045 19.5132251 65.33530045 18.25146484 65.34262085 C16.51332687 65.34601372 14.77512456 65.33685403 13.03710938 65.31591797 C10.38266175 65.28913979 7.73244175 65.31568246 5.078125 65.34765625 C3.38540737 65.34435204 1.69269237 65.33794556 0 65.328125 C-0.78971191 65.33824615 -1.57942383 65.34836731 -2.39306641 65.35879517 C-6.21501366 65.27786115 -8.27943402 64.86969086 -11.62255859 62.88037109 C-14.70526899 57.92894135 -14.33989102 53.26260669 -14.2890625 47.5390625 C-14.29384613 46.35940918 -14.29862976 45.17975586 -14.30355835 43.96435547 C-14.30695727 41.47296819 -14.29775565 38.98153631 -14.27685547 36.49023438 C-14.25009343 32.67737351 -14.27660743 28.86745682 -14.30859375 25.0546875 C-14.30528966 22.632806 -14.29888344 20.21092634 -14.2890625 17.7890625 C-14.29918365 16.64937012 -14.30930481 15.50967773 -14.31973267 14.33544922 C-14.24900618 9.55804462 -14.18113821 6.55732813 -11.62255859 2.44775391 C-7.6179703 0.06483144 -4.5849079 -0.05876138 0 0 Z " fill="#000000" transform="translate(277.625,239.3359375)"/>
<path d="M0 0 C1.06816445 0.86807601 2.12918085 1.74494783 3.1875 2.625 C3.77917969 3.11226563 4.37085938 3.59953125 4.98046875 4.1015625 C7.54686166 6.51407112 9.74508093 9.29409712 12 12 C6.72 17.28 1.44 22.56 -4 28 C-2.35 29.65 -0.7 31.3 1 33 C6.28 27.72 11.56 22.44 17 17 C24 23 24 23 29 29 C23.72 34.28 18.44 39.56 13 45 C14.65 46.65 16.3 48.3 18 50 C23.28 44.72 28.56 39.44 34 34 C38.73083325 38.05499992 42.26704243 41.24896309 46 46 C42.76425966 49.26043195 39.52526932 52.51758669 36.28320312 55.77172852 C35.18041139 56.8795536 34.07851824 57.98827393 32.97753906 59.09790039 C31.39622779 60.6913208 29.81172876 62.28150948 28.2265625 63.87109375 C27.73378815 64.36902939 27.24101379 64.86696503 26.73330688 65.37998962 C23.72563087 68.38815914 22.12568406 69.81989055 17.875 70.5 C8.29821396 69.26428567 -0.30179185 56.8499014 -6.9387207 50.19165039 C-8.95344771 48.17150943 -10.97353385 46.15683617 -12.99414062 44.14257812 C-14.2763629 42.85969599 -15.55827545 41.57650419 -16.83984375 40.29296875 C-17.44392563 39.6909111 -18.04800751 39.08885345 -18.6703949 38.46855164 C-23.78859774 33.32126414 -23.78859774 33.32126414 -24.5 28.875 C-23.97491707 24.8056073 -23.63984531 24.17907905 -21.02734375 21.3203125 C-20.39231934 20.62437988 -19.75729492 19.92844727 -19.10302734 19.21142578 C-15.48671339 15.40871255 -11.7937613 11.68969627 -8.0625 8 C-7.28326172 7.22527344 -6.50402344 6.45054688 -5.70117188 5.65234375 C-3.8030758 3.76589243 -1.90266851 1.88183755 0 0 Z " fill="#040301" transform="translate(311,91)"/>
<path d="M0 0 C1.15468025 0.01061211 1.15468025 0.01061211 2.33268738 0.0214386 C4.77879178 0.049312 7.22256259 0.11202988 9.66796875 0.17578125 C11.33134702 0.20087357 12.99476137 0.22368512 14.65820312 0.24414062 C18.72556895 0.29485591 22.78792403 0.39269926 26.85546875 0.48828125 C26.85546875 5.76828125 26.85546875 11.04828125 26.85546875 16.48828125 C18.93546875 16.48828125 11.01546875 16.48828125 2.85546875 16.48828125 C2.85546875 19.12828125 2.85546875 21.76828125 2.85546875 24.48828125 C10.77546875 24.48828125 18.69546875 24.48828125 26.85546875 24.48828125 C26.85546875 29.76828125 26.85546875 35.04828125 26.85546875 40.48828125 C18.93546875 40.48828125 11.01546875 40.48828125 2.85546875 40.48828125 C2.85546875 43.12828125 2.85546875 45.76828125 2.85546875 48.48828125 C10.77546875 48.48828125 18.69546875 48.48828125 26.85546875 48.48828125 C26.85546875 53.76828125 26.85546875 59.04828125 26.85546875 64.48828125 C21.96100508 64.60329476 17.0712539 64.70274835 12.17651367 64.76293945 C10.51294036 64.78803472 8.84947679 64.82211921 7.1862793 64.86547852 C4.79057722 64.92635585 2.39633624 64.95453894 0 64.9765625 C-0.73977585 65.00236893 -1.4795517 65.02817535 -2.241745 65.05476379 C-5.82988062 65.05669866 -8.02194095 64.56151269 -11.11206055 62.71557617 C-14.23208747 57.76138568 -13.85959974 53.10680984 -13.80859375 47.36328125 C-13.81337738 46.18362793 -13.81816101 45.00397461 -13.8230896 43.78857422 C-13.82648852 41.29718694 -13.8172869 38.80575506 -13.79638672 36.31445312 C-13.76962468 32.50159226 -13.79613868 28.69167557 -13.828125 24.87890625 C-13.82482091 22.45702475 -13.81841469 20.03514509 -13.80859375 17.61328125 C-13.8187149 16.47358887 -13.82883606 15.33389648 -13.83926392 14.15966797 C-13.7681895 9.35876148 -13.70573514 6.37939888 -11.11206055 2.26098633 C-7.34271849 0.00930449 -4.26238051 -0.14868938 0 0 Z " fill="#000000" transform="translate(389.14453125,239.51171875)"/>
<path d="M0 0 C36.96 0 73.92 0 112 0 C112 5.28 112 10.56 112 16 C75.04 16 38.08 16 0 16 C0 10.72 0 5.44 0 0 Z " fill="#E29753" transform="translate(200,368)"/>
<path d="M0 0 C36.96 0 73.92 0 112 0 C112 5.28 112 10.56 112 16 C75.04 16 38.08 16 0 16 C0 10.72 0 5.44 0 0 Z " fill="#000000" transform="translate(360,352)"/>
<path d="M0 0 C31.35 0 62.7 0 95 0 C88.25164078 7.87308575 88.25164078 7.87308575 84.57104492 11.52661133 C83.75387497 12.34047806 82.93670502 13.15434479 82.09477234 13.99287415 C81.23205215 14.84729599 80.36933197 15.70171783 79.48046875 16.58203125 C78.58129227 17.47742111 77.68211578 18.37281097 76.75569153 19.29533386 C73.90204124 22.13682862 71.04526527 24.97514562 68.1875 27.8125 C64.40716482 31.56601534 60.63040151 35.32308055 56.85546875 39.08203125 C55.98262741 39.94657425 55.10978607 40.81111725 54.210495 41.70185852 C53.40908585 42.49996445 52.6076767 43.29807037 51.78198242 44.12036133 C51.07393967 44.82316727 50.36589691 45.52597321 49.63639832 46.25007629 C47.9240295 47.91505453 47.9240295 47.91505453 47 50 C46.34 50 45.68 50 45 50 C45.2475 48.14375 45.2475 48.14375 45.5 46.25 C46.76264065 34.24549115 46.636259 24.50374956 38.875 14.6875 C33.77943977 9.23900053 26.23008896 5.26374655 18.7421875 4.796875 C11.22900425 4.70580611 5.0216325 5.04352316 -2 8 C-1.125 2.25 -1.125 2.25 0 0 Z " fill="#C46A5F" transform="translate(125,432)"/>
<path d="M0 0 C3.66771845 1.83385923 5.46834996 3.25062829 8.25 6.125 C8.95640625 6.84945312 9.6628125 7.57390625 10.390625 8.3203125 C10.92171875 8.87460937 11.4528125 9.42890625 12 10 C10.59155282 13.21524305 8.89655214 15.32183868 6.375 17.75 C5.74335938 18.36359375 5.11171875 18.9771875 4.4609375 19.609375 C3.97882813 20.06828125 3.49671875 20.5271875 3 21 C4.31376917 23.90543872 5.72056492 25.96661059 7.98095703 28.20800781 C8.58142853 28.80832825 9.18190002 29.40864868 9.80056763 30.02716064 C10.76940384 30.980513 10.76940384 30.980513 11.7578125 31.953125 C12.42086395 32.61334656 13.08391541 33.27356812 13.76705933 33.95379639 C15.88171832 36.05727824 18.00323212 38.15369142 20.125 40.25 C21.56165557 41.67662261 22.99785898 43.10370072 24.43359375 44.53125 C27.95050804 48.02613661 31.47358547 51.51470062 35 55 C33.39464713 58.41059403 31.59481099 60.61792484 28.875 63.25 C28.15054688 63.95640625 27.42609375 64.6628125 26.6796875 65.390625 C25.84824219 66.18726562 25.84824219 66.18726562 25 67 C22.09456128 65.68623083 20.03338941 64.27943508 17.79199219 62.01904297 C17.19167175 61.41857147 16.59135132 60.81809998 15.97283936 60.19943237 C15.33727112 59.55354156 14.70170288 58.90765076 14.046875 58.2421875 C13.38665344 57.57913605 12.72643188 56.91608459 12.04620361 56.23294067 C9.94272176 54.11828168 7.84630858 51.99676788 5.75 49.875 C4.32337739 48.43834443 2.89629928 47.00214102 1.46875 45.56640625 C-2.02613661 42.04949196 -5.51470062 38.52641453 -9 35 C-12.41059403 36.60535287 -14.61792484 38.40518901 -17.25 41.125 C-17.95640625 41.84945312 -18.6628125 42.57390625 -19.390625 43.3203125 C-20.18726563 44.15175781 -20.18726563 44.15175781 -21 45 C-22.06816445 44.13192399 -23.12918085 43.25505217 -24.1875 42.375 C-25.07501953 41.64410156 -25.07501953 41.64410156 -25.98046875 40.8984375 C-28.54686166 38.48592888 -30.74508093 35.70590288 -33 33 C-22.11 22.11 -11.22 11.22 0 0 Z " fill="#050301" transform="translate(350,52)"/>
<path d="M0 0 C15.84 0 31.68 0 48 0 C48 5.28 48 10.56 48 16 C42.72 16 37.44 16 32 16 C32 31.84 32 47.68 32 64 C26.72 64 21.44 64 16 64 C16 48.16 16 32.32 16 16 C10.72 16 5.44 16 0 16 C0 10.72 0 5.44 0 0 Z " fill="#000000" transform="translate(424,240)"/>
<path d="M0 0 C15.84 0 31.68 0 48 0 C48 5.28 48 10.56 48 16 C42.72 16 37.44 16 32 16 C32 31.84 32 47.68 32 64 C26.72 64 21.44 64 16 64 C16 48.16 16 32.32 16 16 C10.72 16 5.44 16 0 16 C0 10.72 0 5.44 0 0 Z " fill="#000000" transform="translate(184,240)"/>
<path d="M0 0 C3.41059403 1.60535287 5.61792484 3.40518901 8.25 6.125 C8.95640625 6.84945312 9.6628125 7.57390625 10.390625 8.3203125 C10.92171875 8.87460938 11.4528125 9.42890625 12 10 C10.49541048 13.50609027 8.46674596 15.80253136 5.79736328 18.5090332 C4.92951202 19.39287186 4.06166077 20.27671051 3.16751099 21.18733215 C2.21892494 22.14229234 1.26984685 23.09676397 0.3203125 24.05078125 C-0.6538131 25.03387579 -1.62786187 26.01704646 -2.60183716 27.00028992 C-4.64084331 29.0557577 -6.68417739 31.106816 -8.72998047 33.15551758 C-11.35371792 35.78465786 -13.96089067 38.42960078 -16.56443596 41.07871723 C-18.56857778 43.11254743 -20.58382617 45.13508493 -22.60235977 47.15462303 C-23.56893398 48.1254104 -24.53137579 49.10033018 -25.48958969 50.0793705 C-26.82740458 51.44394286 -28.18260878 52.79140162 -29.53857422 54.13793945 C-30.30531464 54.90975052 -31.07205505 55.68156158 -31.86203003 56.47676086 C-34 58 -34 58 -36.14285278 57.84806824 C-38.6740336 56.69220184 -40.33369226 55.13736722 -42.3125 53.1875 C-43.03050781 52.50042969 -43.74851562 51.81335938 -44.48828125 51.10546875 C-46 49 -46 49 -45.85975647 47.15496826 C-44.69656459 44.23944315 -42.98385515 42.62465859 -40.75561523 40.41503906 C-39.85475693 39.51440735 -38.95389862 38.61377563 -38.02574158 37.68585205 C-37.03685152 36.71228128 -36.04779839 35.73887613 -35.05859375 34.765625 C-34.05045881 33.76308709 -33.04298554 32.75988341 -32.03614807 31.75604248 C-29.38768781 29.11902254 -26.7303417 26.49113676 -24.07104492 23.86505127 C-21.35769463 21.18241929 -18.65284395 18.49124748 -15.94726562 15.80078125 C-10.63979305 10.52545848 -5.3229043 5.25975629 0 0 Z " fill="#050402" transform="translate(425,139)"/>
<path d="M0 0 C5.28 0 10.56 0 16 0 C16 21.12 16 42.24 16 64 C10.72 64 5.44 64 0 64 C0 42.88 0 21.76 0 0 Z " fill="#000000" transform="translate(240,240)"/>
<path d="M0 0 C15.84 0 31.68 0 48 0 C48 5.28 48 10.56 48 16 C32.16 16 16.32 16 0 16 C0 10.72 0 5.44 0 0 Z " fill="#000000" transform="translate(64,376)"/>
<path d="M0 0 C15.84 0 31.68 0 48 0 C48 5.28 48 10.56 48 16 C32.16 16 16.32 16 0 16 C0 10.72 0 5.44 0 0 Z " fill="#000000" transform="translate(64,344)"/>
<path d="M0 0 C15.84 0 31.68 0 48 0 C48 5.28 48 10.56 48 16 C32.16 16 16.32 16 0 16 C0 10.72 0 5.44 0 0 Z " fill="#000000" transform="translate(64,312)"/>
<path d="M0 0 C15.84 0 31.68 0 48 0 C48 5.28 48 10.56 48 16 C32.16 16 16.32 16 0 16 C0 10.72 0 5.44 0 0 Z " fill="#000000" transform="translate(64,280)"/>
<path d="M0 0 C15.84 0 31.68 0 48 0 C48 5.28 48 10.56 48 16 C32.16 16 16.32 16 0 16 C0 10.72 0 5.44 0 0 Z " fill="#000000" transform="translate(64,248)"/>
<path d="M0 0 C0 5.28 0 10.56 0 16 C-8.58 16 -17.16 16 -26 16 C-24.02 13.36 -22.04 10.72 -20 8 C-19.0409375 5.7725 -19.0409375 5.7725 -18.0625 3.5 C-14.49616618 -2.62739234 -5.98101741 -0.41607078 0 0 Z " fill="#C16B3F" transform="translate(312,368)"/>
</svg>
